name C:\Users\antoi\Documents\MyRepositories\predictsim_mtp\Results\Case_40\motion.mot
datacolumns 124
datarows 4
range 0.55633428 0.57302431
endheader 
time	pelvis_tilt	pelvis_list	pelvis_rotation	pelvis_tx	pelvis_ty	pelvis_tz	hip_flexion_l	hip_adduction_l	hip_rotation_l	hip_flexion_r	hip_adduction_r	hip_rotation_r	knee_angle_l	knee_angle_r	ankle_angle_l	ankle_angle_r	subtalar_angle_l	subtalar_angle_r	mtp_angle_l	mtp_angle_r	lumbar_extension	lumbar_bending	lumbar_rotation	arm_flex_l	arm_add_l	arm_rot_l	arm_flex_r	arm_add_r	arm_rot_r	elbow_flex_l	elbow_flex_r	glut_med1_l/activation	glut_med2_l/activation	glut_med3_l/activation	glut_min1_l/activation	glut_min2_l/activation	glut_min3_l/activation	semimem_l/activation	semiten_l/activation	bifemlh_l/activation	bifemsh_l/activation	sar_l/activation	add_long_l/activation	add_brev_l/activation	add_mag1_l/activation	add_mag2_l/activation	add_mag3_l/activation	tfl_l/activation	pect_l/activation	grac_l/activation	glut_max1_l/activation	glut_max2_l/activation	glut_max3_l/activation	iliacus_l/activation	psoas_l/activation	quad_fem_l/activation	gem_l/activation	peri_l/activation	rect_fem_l/activation	vas_med_l/activation	vas_int_l/activation	vas_lat_l/activation	med_gas_l/activation	lat_gas_l/activation	soleus_l/activation	tib_post_l/activation	flex_dig_l/activation	flex_hal_l/activation	tib_ant_l/activation	per_brev_l/activation	per_long_l/activation	per_tert_l/activation	ext_dig_l/activation	ext_hal_l/activation	ercspn_l/activation	intobl_l/activation	extobl_l/activation	glut_med1_r/activation	glut_med2_r/activation	glut_med3_r/activation	glut_min1_r/activation	glut_min2_r/activation	glut_min3_r/activation	semimem_r/activation	semiten_r/activation	bifemlh_r/activation	bifemsh_r/activation	sar_r/activation	add_long_r/activation	add_brev_r/activation	add_mag1_r/activation	add_mag2_r/activation	add_mag3_r/activation	tfl_r/activation	pect_r/activation	grac_r/activation	glut_max1_r/activation	glut_max2_r/activation	glut_max3_r/activation	iliacus_r/activation	psoas_r/activation	quad_fem_r/activation	gem_r/activation	peri_r/activation	rect_fem_r/activation	vas_med_r/activation	vas_int_r/activation	vas_lat_r/activation	med_gas_r/activation	lat_gas_r/activation	soleus_r/activation	tib_post_r/activation	flex_dig_r/activation	flex_hal_r/activation	tib_ant_r/activation	per_brev_r/activation	per_long_r/activation	per_tert_r/activation	ext_dig_r/activation	ext_hal_r/activation	ercspn_r/activation	intobl_r/activation	extobl_r/activation	
          0.55633428	         -8.73133081	          3.74833044	         -6.02234270	          0.73992459	          0.89322164	          0.00775091	         36.40030554	          3.30589794	         -2.99663030	        -13.08407650	         -1.53492548	          8.66555210	        -10.85294547	         -6.81680795	         11.35651729	          2.55343305	         -7.83141485	         -2.29320705	          0.29085945	         34.46443003	          2.65384721	         -1.27926446	          1.23235027	         -2.19142898	        -13.87208244	         11.64572192	         -2.76879969	        -13.48339066	         14.70557249	          0.53858628	         89.12529772	          0.05463615	          0.05384817	          0.05000010	          0.05463521	          0.05374064	          0.05463611	          0.22174796	          0.05970214	          0.12039017	          0.05000011	          0.05378869	          0.09301109	          0.16277078	          0.18484452	          0.18019453	          0.13200988	          0.05000056	          0.05462603	          0.10722387	          0.10422296	          0.13561790	          0.13323078	          0.05001373	          0.05000023	          0.26401123	          0.05000028	          0.05000281	          0.05000013	          0.12408673	          0.12113113	          0.10937289	          0.05000008	          0.05000007	          0.05460321	          0.05000000	          0.05000004	          0.05000004	          0.61270066	          0.33958737	          0.21045496	          0.37187953	          0.67112267	          0.33846294	          0.09559840	          0.08622148	          0.07128685	          0.15400108	          0.11106037	          0.10163640	          0.17215025	          0.17024864	          0.13186639	          0.05000020	          0.05000009	          0.05000008	          0.07351411	          0.08935641	          0.11522188	          0.05279593	          0.05000105	          0.05000070	          0.05000022	          0.35866002	          0.07760698	          0.05000184	          0.05000068	          0.05000035	          0.05000015	          0.32071669	          0.62574142	          0.07291113	          0.05823336	          0.10551898	          0.11950515	          0.05387146	          0.05286162	          0.05021316	          0.28280683	          0.41588386	          0.30379738	          0.45592292	          0.53749464	          0.52068648	          0.05000000	          0.05000030	          0.05000005	          0.05000009	          0.05000002	          0.05000008	          0.05474733	          0.05000000	          0.05000001	
          0.56189762	         -8.72633565	          3.83743822	         -6.19400711	          0.74879145	          0.89235532	          0.00761409	         36.12206830	          3.47999875	         -2.88592833	        -12.97931315	         -1.65747262	          8.40475459	        -11.01503955	         -7.99727217	         11.04792652	          2.31399405	         -8.02851943	         -2.01798003	          0.30190823	         35.23195234	          2.73121237	         -1.39495581	          1.25129005	         -2.70906466	        -13.93437119	         11.17333404	         -2.97002406	        -13.49699385	         15.01524960	          0.32936851	         90.48703895	          0.05000004	          0.05000019	          0.05463611	          0.05000028	          0.05000021	          0.05000016	          0.20293171	          0.05463618	          0.11017455	          0.05463590	          0.05000019	          0.08511878	          0.14895905	          0.24613147	          0.18680229	          0.12234514	          0.05000007	          0.05000074	          0.09820398	          0.11347813	          0.14966152	          0.14782832	          0.05000004	          0.05000021	          0.46313048	          0.13729930	          0.13241013	          0.06523808	          0.15099374	          0.15026221	          0.13139934	          0.05000000	          0.05000000	          0.05000000	          0.05295623	          0.05055940	          0.05000018	          0.61623645	          0.31077188	          0.19259693	          0.34032396	          0.64252925	          0.30974290	          0.08748646	          0.07890520	          0.06523785	          0.14093347	          0.10163641	          0.09301210	          0.15754259	          0.15580231	          0.12067695	          0.05000075	          0.05000017	          0.05000014	          0.06727611	          0.08177416	          0.13403663	          0.06315695	          0.10936657	          0.05429770	          0.08136588	          0.33173392	          0.07102190	          0.05000096	          0.05000291	          0.05000297	          0.06139834	          0.29350246	          0.59356950	          0.06672435	          0.06252402	          0.09656523	          0.10936461	          0.07387768	          0.08292308	          0.08996228	          0.25880941	          0.38059429	          0.28960072	          0.45237122	          0.53687456	          0.51469025	          0.05000009	          0.05000002	          0.05000001	          0.05000007	          0.05000002	          0.05000024	          0.06943771	          0.05970217	          0.05000005	
          0.56746096	         -8.71947426	          3.92418787	         -6.36035065	          0.75772354	          0.89148147	          0.00747201	         35.82446763	          3.63985699	         -2.76354999	        -12.84452703	         -1.77839031	          8.13707327	        -11.35611131	         -9.23696607	         10.64842288	          2.05601863	         -8.22608378	         -1.74782398	          0.30662250	         35.93481476	          2.81332396	         -1.50932908	          1.26766694	         -3.24517415	        -13.99860488	         10.71775489	         -3.17677543	        -13.50971506	         15.32009587	          0.17877828	         91.79474621	          0.11368123	          0.05000004	          0.05000005	          0.05000006	          0.05000006	          0.05000011	          0.18571212	          0.05000009	          0.10082578	          0.05000001	          0.05000010	          0.07789669	          0.15124361	          0.22524617	          0.17095146	          0.13427695	          0.05000072	          0.06524747	          0.08987117	          0.14570518	          0.16512437	          0.14094388	          0.05217715	          0.05000071	          0.42383182	          0.12564892	          0.18461269	          0.05970236	          0.14464722	          0.13978427	          0.12446836	          0.07128691	          0.07789059	          0.07209131	          0.05970221	          0.05463961	          0.05970246	          0.56394604	          0.43898920	          0.25674645	          0.31144597	          0.58800779	          0.28345984	          0.08006296	          0.07220976	          0.05970214	          0.18623003	          0.09301212	          0.08511961	          0.14417449	          0.14258181	          0.11043699	          0.05000187	          0.05000050	          0.05000064	          0.06156744	          0.07483530	          0.13437574	          0.12369751	          0.10115461	          0.06003153	          0.11852411	          0.32841484	          0.06499577	          0.05237592	          0.05463920	          0.05464170	          0.05989101	          0.26859747	          0.54451787	          0.06106254	          0.05721888	          0.08837125	          0.10008454	          0.07286648	          0.07590603	          0.08233839	          0.23684827	          0.34829918	          0.27964084	          0.43085954	          0.50318012	          0.48672094	          0.05000009	          0.05000003	          0.05000002	          0.05000007	          0.05000003	          0.05000022	          0.07235942	          0.05463618	          0.05000004	
          0.57302431	         -8.71107665	          4.00903323	         -6.52114429	          0.76670161	          0.89061020	          0.00732469	         35.49597047	          3.78365189	         -2.62911492	        -12.67942764	         -1.89863540	          7.86380487	        -11.74875599	        -10.53373765	         10.33760737	          1.78371637	         -8.41972403	         -1.48203455	          0.28426634	         36.55021034	          2.89858172	         -1.62252504	          1.28196223	         -3.79385134	        -14.06356683	         10.28268972	         -3.38702051	        -13.52098632	         15.61891236	          0.08035568	         93.04536129	          0.18686112	          0.20547716	          0.26554237	          0.07534702	          0.14763973	          0.20310694	          0.16995363	          0.06964060	          0.09439206	          0.09267191	          0.05970325	          0.07128682	          0.13840992	          0.20613306	          0.15644552	          0.13053068	          0.05000061	          0.05971108	          0.08224575	          0.19193388	          0.18330328	          0.12898441	          0.05463635	          0.05463618	          0.38786786	          0.11498727	          0.22221775	          0.05463635	          0.13237327	          0.12792296	          0.11390668	          0.06523790	          0.07128123	          0.06597404	          0.05463622	          0.05000326	          0.05463647	          0.66589772	          0.42012609	          0.23568569	          0.29734169	          0.69073049	          0.35148831	          0.08694379	          0.09521575	          0.05463616	          0.23745105	          0.08511963	          0.07789684	          0.18656991	          0.13048314	          0.10106593	          0.05000102	          0.05000017	          0.05000017	          0.05634318	          0.06848523	          0.14308628	          0.17604656	          0.09257172	          0.05493911	          0.12758922	          0.36334786	          0.05950541	          0.05000108	          0.05000327	          0.05000532	          0.05480908	          0.24580578	          0.52993277	          0.05588113	          0.05236385	          0.08087256	          0.09159193	          0.06668357	          0.06946522	          0.07535179	          0.21675064	          0.31874445	          0.26651925	          0.41675804	          0.48126903	          0.46651348	          0.05000008	          0.05000004	          0.05000002	          0.05000009	          0.05000003	          0.05000025	          0.07321090	          0.05000007	          0.05000002	
